<?xml version="1.0" encoding="UTF-8"?>
<svg width="24px" height="24px" viewBox="0 0 24 24" version="1.1" xmlns="http://www.w3.org/2000/svg" xmlns:xlink="http://www.w3.org/1999/xlink">
    <!-- Generator: Sketch 50 (54983) - http://www.bohemiancoding.com/sketch -->
    <title>Fill 115</title>
    <desc>Created with Sketch.</desc>
    <defs></defs>
    <g id="Page-1" stroke="none" stroke-width="1" fill="none" fill-rule="evenodd">
        <g id="BMT_landing" transform="translate(-423.000000, -5778.000000)" fill="#EBB43A">
            <path d="M444.230769,5798.76923 C444.230769,5799.024 444.024,5799.23077 443.769231,5799.23077 L440.076923,5799.23077 C439.822154,5799.23077 439.615385,5799.024 439.615385,5798.76923 L439.615385,5792.30769 C439.615385,5791.54431 438.994154,5790.92308 438.230769,5790.92308 C437.467385,5790.92308 436.846154,5791.54431 436.846154,5792.30769 L436.846154,5798.76923 C436.846154,5799.024 436.639385,5799.23077 436.384615,5799.23077 L432.692308,5799.23077 C432.437538,5799.23077 432.230769,5799.024 432.230769,5798.76923 L432.230769,5787.69231 C432.230769,5787.43754 432.437538,5787.23077 432.692308,5787.23077 L436.384615,5787.23077 C436.639385,5787.23077 436.846154,5787.43754 436.846154,5787.69231 L436.846154,5788.17138 C437.639077,5787.56492 438.604615,5787.23077 439.615385,5787.23077 C442.160308,5787.23077 444.230769,5789.30123 444.230769,5791.84615 L444.230769,5798.76923 Z M429,5786.30769 C427.728,5786.30769 426.692308,5785.272 426.692308,5784 C426.692308,5782.728 427.728,5781.69231 429,5781.69231 C430.272,5781.69231 431.307692,5782.728 431.307692,5784 C431.307692,5785.272 430.272,5786.30769 429,5786.30769 Z M431.307692,5798.76923 C431.307692,5799.024 431.100923,5799.23077 430.846154,5799.23077 L427.153846,5799.23077 C426.899077,5799.23077 426.692308,5799.024 426.692308,5798.76923 L426.692308,5787.69231 C426.692308,5787.43754 426.899077,5787.23077 427.153846,5787.23077 L430.846154,5787.23077 C431.100923,5787.23077 431.307692,5787.43754 431.307692,5787.69231 L431.307692,5798.76923 Z M445.153846,5778 L424.846154,5778 C423.828,5778 423,5778.828 423,5779.84615 L423,5800.15385 C423,5801.172 423.828,5802 424.846154,5802 L445.153846,5802 C446.172,5802 447,5801.172 447,5800.15385 L447,5779.84615 C447,5778.828 446.172,5778 445.153846,5778 Z" id="Fill-115"></path>
        </g>
    </g>
</svg>