<?xml version="1.0" encoding="UTF-8"?>
<svg width="133px" height="62px" viewBox="0 0 133 62" version="1.1" xmlns="http://www.w3.org/2000/svg" xmlns:xlink="http://www.w3.org/1999/xlink">
    <!-- Generator: Sketch 50 (54983) - http://www.bohemiancoding.com/sketch -->
    <title>img_bmlogo</title>
    <desc>Created with Sketch.</desc>
    <defs>
        <path d="M65.9646093,45.438628 L65.9646093,36.104628 L70.5666093,40.719628 L75.1686093,36.104628 L75.1686093,45.438628 L73.0886093,45.438628 L73.0886093,40.914628 L70.5666093,43.436628 L68.0446093,40.914628 L68.0446093,45.438628 L65.9646093,45.438628 Z M81.1106091,45.438628 L81.1106091,36.208628 L83.1906091,36.208628 L83.1906091,45.438628 L81.1106091,45.438628 Z M97.0366089,45.542628 L91.2126089,40.615628 L91.2126089,45.438628 L89.1326089,45.438628 L89.1326089,36.104628 L94.9566089,41.031628 L94.9566089,36.208628 L97.0366089,36.208628 L97.0366089,45.542628 Z M102.978609,45.438628 L102.978609,36.208628 L105.058609,36.208628 L105.058609,45.438628 L102.978609,45.438628 Z M118.904609,45.542628 L113.080609,40.615628 L113.080609,45.438628 L111.000609,45.438628 L111.000609,36.104628 L116.824609,41.031628 L116.824609,36.208628 L118.904609,36.208628 L118.904609,45.542628 Z M129.136608,45.542628 C126.536608,45.542628 124.417608,43.423628 124.417608,40.823628 C124.417608,38.223628 126.536608,36.104628 129.136608,36.104628 C130.722608,36.104628 131.970608,36.741628 132.867608,37.846628 L131.294608,39.133628 C130.735608,38.431628 130.124608,38.106628 129.136608,38.106628 C127.641608,38.106628 126.510608,39.341628 126.510608,40.823628 C126.510608,42.305628 127.641608,43.540628 129.136608,43.540628 C129.890608,43.540628 130.462608,43.410628 130.917608,43.085628 L130.917608,41.798628 L128.694608,41.798628 L129.578608,39.848628 L132.932608,39.848628 L132.932608,44.034628 C132.022608,45.074628 130.696608,45.542628 129.136608,45.542628 Z" id="path-1"></path>
        <path d="M66.9757124,29.5712053 L66.9757124,13.9512053 L72.1897124,13.9512053 C75.2037124,13.9512053 76.7877124,15.8212053 76.7877124,18.0212053 C76.7877124,19.6052053 76.1717124,20.5952053 75.1597124,21.2772053 C76.6997124,21.8712053 77.8217124,23.0592053 77.8217124,25.1712053 C77.8217124,28.0092053 75.6437124,29.5712053 72.4317124,29.5712053 L66.9757124,29.5712053 Z M68.9777124,27.7232053 L72.6737124,27.7232053 C74.7857124,27.7232053 75.7977124,26.6012053 75.7977124,25.0832053 C75.7977124,23.5652053 74.7857124,22.3992053 72.6737124,22.3992053 L68.9777124,22.3992053 L68.9777124,27.7232053 Z M68.9777124,20.6832053 L72.1457124,20.6832053 C73.7957124,20.6832053 74.7857124,19.6272053 74.7857124,18.2412053 C74.7857124,16.9212053 73.7957124,15.7992053 72.1457124,15.7992053 L68.9777124,15.7992053 L68.9777124,20.6832053 Z M88.6017124,29.5712053 L88.6017124,28.4712053 C87.6777124,29.3072053 86.4457124,29.7472053 85.1037124,29.7472053 C81.8697124,29.7472053 79.4937124,27.2612053 79.4937124,24.0712053 C79.4937124,20.8812053 81.8697124,18.3952053 85.1037124,18.3952053 C86.4457124,18.3952053 87.6777124,18.8352053 88.6017124,19.6712053 L88.6017124,18.5712053 L90.4937124,18.5712053 L90.4937124,29.5712053 L88.6017124,29.5712053 Z M85.1477124,27.9652053 C86.7317124,27.9652053 87.9637124,27.2172053 88.6017124,26.1832053 L88.6017124,21.9592053 C87.9637124,20.9252053 86.7317124,20.1772053 85.1477124,20.1772053 C82.9917124,20.1772053 81.4517124,21.8932053 81.4517124,24.0712053 C81.4517124,26.2492053 82.9917124,27.9652053 85.1477124,27.9652053 Z M93.8817124,29.5712053 L93.8817124,13.9512053 L95.7737124,13.9512053 L95.7737124,29.5712053 L93.8817124,29.5712053 Z M99.1617124,29.5712053 L99.1617124,13.9512053 L101.053712,13.9512053 L101.053712,23.5432053 L105.915712,18.5712053 L108.291712,18.5712053 L103.165712,23.7632053 L108.797712,29.5712053 L106.355712,29.5712053 L101.053712,24.0932053 L101.053712,29.5712053 L99.1617124,29.5712053 Z M117.861712,29.5712053 L117.861712,28.4712053 C116.937712,29.3072053 115.705712,29.7472053 114.363712,29.7472053 C111.129712,29.7472053 108.753712,27.2612053 108.753712,24.0712053 C108.753712,20.8812053 111.129712,18.3952053 114.363712,18.3952053 C115.705712,18.3952053 116.937712,18.8352053 117.861712,19.6712053 L117.861712,18.5712053 L119.753712,18.5712053 L119.753712,29.5712053 L117.861712,29.5712053 Z M114.407712,27.9652053 C115.991712,27.9652053 117.223712,27.2172053 117.861712,26.1832053 L117.861712,21.9592053 C117.223712,20.9252053 115.991712,20.1772053 114.407712,20.1772053 C112.251712,20.1772053 110.711712,21.8932053 110.711712,24.0712053 C110.711712,26.2492053 112.251712,27.9652053 114.407712,27.9652053 Z M123.141712,29.5712053 L123.141712,18.5712053 L125.033712,18.5712053 L125.033712,19.8252053 C125.869712,18.7692053 127.167712,18.3952053 128.443712,18.3952053 C130.929712,18.3952053 132.689712,20.1332053 132.689712,22.8612053 L132.689712,29.5712053 L130.797712,29.5712053 L130.797712,22.9712053 C130.797712,21.3652053 129.741712,20.1772053 128.025712,20.1772053 C126.485712,20.1772053 125.429712,21.0352053 125.033712,22.4652053 L125.033712,29.5712053 L123.141712,29.5712053 Z" id="path-2"></path>
        <linearGradient x1="0.0251572327%" y1="49.9360886%" x2="103.773585%" y2="49.9360886%" id="linearGradient-3">
            <stop stop-color="#9C9200" offset="0%"></stop>
            <stop stop-color="#9E9500" offset="27%"></stop>
            <stop stop-color="#A69F01" offset="30%"></stop>
            <stop stop-color="#BABB03" offset="35%"></stop>
            <stop stop-color="#DBE806" offset="42%"></stop>
            <stop stop-color="#EDFF08" offset="45%"></stop>
            <stop stop-color="#855A00" offset="99%"></stop>
        </linearGradient>
    </defs>
    <g id="Page-1" stroke="none" stroke-width="1" fill="none" fill-rule="evenodd">
        <g id="BMT_landing" transform="translate(-40.000000, -9.000000)">
            <g id="img_bmlogo" transform="translate(40.000000, 9.000000)">
                <path d="M23.7389701,1.04934964 L3.92453714,12.484195 C1.49388676,13.8951342 -0.00145287954,16.4937131 1.05929764e-06,19.304195 L1.05929764e-06,42.1802775 C0.0060892001,44.9904024 1.50564527,47.5854134 3.93732065,48.9938857 L23.7517536,60.4223393 C26.1905058,61.8288328 29.1940324,61.8288328 31.6327846,60.4223393 L51.4472176,48.9938857 C53.8700158,47.5799069 55.3594862,44.9855024 55.3589701,42.1802775 L55.3589701,19.304195 C55.359103,16.4890542 53.8552195,13.8883351 51.4152588,12.484195 L31.6008258,1.04934964 C29.1669544,-0.349783214 26.1728415,-0.349783214 23.7389701,1.04934964 Z" id="Shape" fill="#000000" fill-rule="nonzero"></path>
                <g id="MINING" fill="#000000">
                    <use xlink:href="#path-1"></use>
                    <use xlink:href="#path-1"></use>
                </g>
                <g id="Balkan" fill="#000000">
                    <use xlink:href="#path-2"></use>
                    <use xlink:href="#path-2"></use>
                </g>
                <path d="M31.8969072,28.9856197 C35.2163094,28.9856197 37.9072165,26.2975509 37.9072252,22.9867462 C37.8959578,19.677299 35.2086001,16.9996301 31.8969072,16.9968356 L14,16.9968356 L14,14 L31.8981741,14.0000005 C36.8630157,14.0041892 40.8903224,18.0169763 40.9072165,22.9816501 C40.9072165,25.7613845 39.6457975,28.2468094 37.6635832,29.8978716 C40.4460854,31.3675131 42.3453608,34.4551175 42.3453608,37.9928098 C42.3453608,42.9357404 38.6375561,47 33.9934021,47 L22.68,47 L22.68,44.0031644 L33.9934021,44.0031644 C36.9153416,44.0031644 39.3453608,41.3395319 39.3453608,37.9928098 C39.3453608,34.6460878 36.9153416,31.9824553 33.9934021,31.9824553 L18.6531959,31.9824553 L18.6531959,28.9856197 L31.8969072,28.9856197 Z" id="Combined-Shape" fill="url(#linearGradient-3)" fill-rule="nonzero"></path>
                <rect id="Rectangle-path" fill="#000000" fill-rule="nonzero" transform="translate(14.288555, 16.164501) rotate(139.640000) translate(-14.288555, -16.164501) " x="11.9044317" y="10.4023358" width="4.76824742" height="11.5243299"></rect>
            </g>
        </g>
    </g>
</svg>