<?xml version="1.0" encoding="UTF-8"?>
<svg width="24px" height="24px" viewBox="0 0 24 24" version="1.1" xmlns="http://www.w3.org/2000/svg" xmlns:xlink="http://www.w3.org/1999/xlink">
    <!-- Generator: sketchtool 49.3 (51167) - http://www.bohemiancoding.com/sketch -->
    <title>5127C27B-696D-427B-A61D-DFAE8218A7FA</title>
    <desc>Created with sketchtool.</desc>
    <defs>
        <linearGradient x1="0%" y1="0%" x2="100%" y2="100%" id="linearGradient-1">
            <stop stop-color="#FAD961" offset="0%"></stop>
            <stop stop-color="#C79651" offset="100%"></stop>
        </linearGradient>
    </defs>
    <g id="Page-1" stroke="none" stroke-width="1" fill="none" fill-rule="evenodd">
        <g id="BMT_landing" transform="translate(-838.000000, -6302.000000)" fill="url(#linearGradient-1)">
            <g id="Group-20" transform="translate(579.000000, 6302.000000)">
                <path d="M271,24 C264.372583,24 259,18.627417 259,12 C259,5.372583 264.372583,0 271,0 C277.627417,0 283,5.372583 283,12 C283,18.627417 277.627417,24 271,24 Z M277.012006,8.53846154 C276.968759,8.06249762 276.837215,7.64964117 276.617373,7.29987981 C276.39753,6.95011844 276.100206,6.66887126 275.725392,6.45612981 C275.350578,6.24338836 274.943334,6.08113037 274.503649,5.96935096 C274.063963,5.85757156 273.559413,5.77644256 272.989984,5.72596154 L272.989984,3 L271.324954,3 L271.324954,5.65024038 C271.036635,5.65024038 270.596956,5.65745185 270.005904,5.671875 L270.005904,3 L268.340873,3 L268.340873,5.72596154 C268.10301,5.73317311 267.75343,5.73677885 267.29212,5.73677885 L265,5.72596154 L265,7.5 L266.200119,7.5 C266.747924,7.5 267.068674,7.74518986 267.162377,8.23557692 L267.162377,11.3401442 C267.234457,11.3401442 267.29212,11.34375 267.335368,11.3509615 L267.162377,11.3509615 L267.162377,15.6995192 C267.104714,16.0673095 266.895686,16.2512019 266.535288,16.2512019 L265.335168,16.2512019 L265,18.2307692 L267.162377,18.2307692 C267.299329,18.2307692 267.497545,18.2325721 267.757031,18.2361779 C268.016518,18.2397837 268.21113,18.2415865 268.340873,18.2415865 L268.340873,21 L270.005904,21 L270.005904,18.2740385 C270.308638,18.28125 270.748317,18.2848558 271.324954,18.2848558 L271.324954,21 L272.989984,21 L272.989984,18.2415865 C273.581037,18.2127402 274.105408,18.1586542 274.563114,18.0793269 C275.020819,17.9999996 275.458697,17.8756018 275.876758,17.7061298 C276.29482,17.5366578 276.644401,17.3257224 276.925511,17.0733173 C277.206622,16.8209122 277.439075,16.5000019 277.622878,16.1105769 C277.806681,15.7211519 277.923809,15.2704353 277.974264,14.7584135 C278.067968,13.7560046 277.905791,12.9843777 277.487729,12.4435096 C277.069668,11.9026415 276.438981,11.531251 275.595649,11.3293269 C276.669635,10.7812473 277.14175,9.8509681 277.012006,8.53846154 Z M274.687451,14.4338942 C274.687451,14.6358183 274.653213,14.8197107 274.584738,14.9855769 C274.516262,15.1514431 274.427966,15.2956725 274.319847,15.4182692 C274.211727,15.540866 274.069372,15.649038 273.892777,15.7427885 C273.716182,15.8365389 273.544995,15.9122593 273.379212,15.9699519 C273.213429,16.0276445 273.013411,16.0781248 272.779153,16.1213942 C272.544894,16.1646637 272.33947,16.1953124 272.162875,16.2133413 C271.98628,16.2313703 271.77545,16.2457932 271.53038,16.2566106 C271.285309,16.2674279 271.094301,16.2728365 270.95735,16.2728365 C270.820398,16.2728365 270.64741,16.2710337 270.438379,16.2674279 C270.229348,16.2638221 270.096003,16.2620192 270.038339,16.2620192 L270.038339,12.6057692 C270.096003,12.6057692 270.267189,12.6021635 270.551904,12.5949519 C270.836618,12.5877403 271.069072,12.5841346 271.249271,12.5841346 C271.42947,12.5841346 271.678141,12.5949518 271.995291,12.6165865 C272.312441,12.6382213 272.579132,12.6706729 272.79537,12.7139423 C273.011609,12.7572118 273.247666,12.8239178 273.503549,12.9140625 C273.759432,13.0042072 273.966657,13.114182 274.125233,13.2439904 C274.283808,13.3737987 274.417153,13.5396625 274.525272,13.7415865 C274.633392,13.9435106 274.687451,14.1742775 274.687451,14.4338942 Z M273.919807,9.28485577 C273.919807,9.48677986 273.887371,9.67067225 273.8225,9.83653846 C273.757628,10.0024047 273.660322,10.1412254 273.530579,10.2530048 C273.400835,10.3647842 273.26749,10.462139 273.130539,10.5450721 C272.993588,10.6280052 272.818797,10.6947113 272.606162,10.7451923 C272.393528,10.7956733 272.207925,10.8353364 272.04935,10.8641827 C271.890775,10.893029 271.692559,10.9128605 271.454696,10.9236779 C271.216834,10.9344952 271.036637,10.9417067 270.914102,10.9453125 C270.791567,10.9489183 270.623984,10.9489183 270.411349,10.9453125 C270.198715,10.9417067 270.074379,10.9399038 270.038339,10.9399038 L270.038339,7.61899038 C270.088795,7.61899038 270.23115,7.61718752 270.465409,7.61358173 C270.699668,7.60997594 270.89428,7.60637021 271.049251,7.60276442 C271.204222,7.59915864 271.41325,7.60817297 271.67634,7.62980769 C271.939431,7.65144242 272.161072,7.68028828 272.341271,7.71634615 C272.52147,7.75240403 272.719686,7.81189862 272.935925,7.89483173 C273.152164,7.97776484 273.325152,8.07872537 273.454896,8.19771635 C273.584639,8.31670733 273.694559,8.46814812 273.784658,8.65204327 C273.874758,8.83593842 273.919807,9.04687381 273.919807,9.28485577 Z" id="sc_bt"></path>
            </g>
        </g>
    </g>
</svg>