<?xml version="1.0" encoding="UTF-8"?>
<svg width="24px" height="24px" viewBox="0 0 24 24" version="1.1" xmlns="http://www.w3.org/2000/svg" xmlns:xlink="http://www.w3.org/1999/xlink">
    <!-- Generator: sketchtool 49.3 (51167) - http://www.bohemiancoding.com/sketch -->
    <title>56D2D363-E48B-4DFA-96E9-AF8AF3C8F394</title>
    <desc>Created with sketchtool.</desc>
    <defs>
        <linearGradient x1="0%" y1="0%" x2="100%" y2="100%" id="linearGradient-1">
            <stop stop-color="#FAD961" offset="0%"></stop>
            <stop stop-color="#C79651" offset="100%"></stop>
        </linearGradient>
    </defs>
    <g id="Page-1" stroke="none" stroke-width="1" fill="none" fill-rule="evenodd">
        <g id="BMT_landing" transform="translate(-753.000000, -6302.000000)" fill="url(#linearGradient-1)">
            <g id="Group-20" transform="translate(579.000000, 6302.000000)">
                <path d="M186,0 C179.383,0 174,5.383 174,12 C174,17.738 177.95,22.78 183.392,23.988 C183.539,24.021 183.694,23.985 183.813,23.89 C183.931,23.795 184,23.652 184,23.5 L184,20.5 C184,20.224 183.776,20 183.5,20 L182.5,20 C181.252,20 180.403,18.817 179.653,17.774 C179.576,17.667 179.5,17.56 179.423,17.456 C179.778,17.644 180.083,17.87 180.385,18.093 C180.986,18.539 181.615,18.977 182.438,18.996 C182.458,18.999 182.566,19.004 182.587,19.004 C183.239,19.004 184,18.61 184,17.5 L184,17.151 C184,16.928 183.852,16.731 183.636,16.67 C180.863,15.885 179,13.807 179,11.5 C179,10.3 179.493,9.155 180.425,8.188 C180.569,8.039 180.606,7.818 180.519,7.63 C180.147,6.828 180.226,5.737 180.667,5.082 C181.251,5.309 182.008,5.786 182.5,6.37 C182.635,6.53 182.857,6.59 183.054,6.518 C184.929,5.83 187.071,5.83 188.946,6.518 C189.145,6.591 189.366,6.531 189.5,6.37 C189.992,5.786 190.749,5.309 191.333,5.082 C191.774,5.737 191.853,6.828 191.481,7.63 C191.394,7.818 191.431,8.039 191.575,8.188 C192.507,9.155 193,10.3 193,11.5 C193,13.922 190.93,16.091 187.967,16.774 C187.815,16.809 187.689,16.912 187.625,17.053 C187.56,17.194 187.564,17.357 187.637,17.495 C187.885,17.963 188,18.601 188,19.5 L188,23.5 C188,23.652 188.069,23.795 188.187,23.89 C188.277,23.962 188.387,24 188.5,24 C188.536,24 188.572,23.996 188.608,23.988 C194.05,22.78 198,17.738 198,12 C198,5.383 192.617,0 186,0" id="sc_gh"></path>
            </g>
        </g>
    </g>
</svg>