<?xml version="1.0" encoding="UTF-8"?>
<svg width="22px" height="22px" viewBox="0 0 22 22" version="1.1" xmlns="http://www.w3.org/2000/svg" xmlns:xlink="http://www.w3.org/1999/xlink">
    <!-- Generator: sketchtool 49.3 (51167) - http://www.bohemiancoding.com/sketch -->
    <title>AB096B5A-40E0-4A14-BE79-2C264F82BE99</title>
    <desc>Created with sketchtool.</desc>
    <defs>
        <linearGradient x1="0%" y1="0%" x2="100%" y2="100%" id="linearGradient-1">
            <stop stop-color="#FAD961" offset="0%"></stop>
            <stop stop-color="#C79651" offset="100%"></stop>
        </linearGradient>
    </defs>
    <g id="Page-1" stroke="none" stroke-width="1" fill="none" fill-rule="evenodd">
        <g id="BMT_landing" transform="translate(-796.000000, -6303.000000)" fill="url(#linearGradient-1)" fill-rule="nonzero">
            <g id="Group-20" transform="translate(579.000000, 6302.000000)">
                <path d="M217,1 L239,1 L239,23 L217,23 L217,1 Z M222.249999,8.35767497 L222.249999,14.8899893 C222.290197,15.1256342 222.215914,15.366347 222.049903,15.5383922 L220.497436,17.4215198 L220.497436,17.6698443 L224.899543,17.6698443 L224.899543,17.4215198 L223.347076,15.5383922 C223.179847,15.3666318 223.100964,15.1275052 223.13318,14.8899893 L223.13318,9.24060659 L226.997098,17.6698443 L227.445589,17.6698443 L230.764419,9.24060659 L230.764419,15.9591643 C230.764419,16.1385098 230.764419,16.1729993 230.647121,16.2902637 L229.453446,17.4491114 L229.453446,17.6974359 L235.249324,17.6974359 L235.249324,17.4491114 L234.097048,16.3178553 C233.99533,16.2403197 233.944872,16.1128847 233.965951,15.9867559 L233.965951,7.67478256 C233.944872,7.54865383 233.99533,7.42121871 234.097048,7.3436832 L235.276923,6.21242708 L235.276923,5.96410256 L231.19221,5.96410256 L228.280471,13.2275946 L224.968541,5.96410256 L220.683732,5.96410256 L220.683732,6.21242708 L222.063703,7.87482174 C222.199175,7.99692863 222.268361,8.1762485 222.249999,8.35767497 Z" id="sc_med"></path>
            </g>
        </g>
    </g>
</svg>