<?xml version="1.0" encoding="UTF-8"?>
<svg width="24px" height="18px" viewBox="0 0 24 18" version="1.1" xmlns="http://www.w3.org/2000/svg" xmlns:xlink="http://www.w3.org/1999/xlink">
    <!-- Generator: sketchtool 49.3 (51167) - http://www.bohemiancoding.com/sketch -->
    <title>7D1D6315-BD31-41B9-A50A-42F737F97CF6</title>
    <desc>Created with sketchtool.</desc>
    <defs>
        <linearGradient x1="0%" y1="0%" x2="89.0308887%" y2="89.0308887%" id="linearGradient-1">
            <stop stop-color="#F4D974" offset="0%"></stop>
            <stop stop-color="#EABB7C" offset="49.30681%"></stop>
            <stop stop-color="#C79651" offset="100%"></stop>
        </linearGradient>
    </defs>
    <g id="Page-1" stroke="none" stroke-width="1" fill="none" fill-rule="evenodd">
        <g id="BMT_landing" transform="translate(-709.000000, -6305.000000)" fill="url(#linearGradient-1)">
            <g id="Group-20" transform="translate(579.000000, 6302.000000)">
                <path d="M146.694,17.961 C145.033,18.66 143.498,19 142,19 C140.502,19 138.966,18.66 137.305,17.961 C137.051,17.854 136.931,17.561 137.039,17.306 C137.147,17.052 137.437,16.932 137.694,17.039 C140.764,18.332 143.235,18.332 146.305,17.039 C146.561,16.933 146.853,17.052 146.961,17.306 C147.068,17.561 146.948,17.854 146.694,17.961 M138.5,12 C139.327,12 140,12.673 140,13.5 C140,14.327 139.327,15 138.5,15 C137.673,15 137,14.327 137,13.5 C137,12.673 137.673,12 138.5,12 M145.5,12 C146.327,12 147,12.673 147,13.5 C147,14.327 146.327,15 145.5,15 C144.673,15 144,14.327 144,13.5 C144,12.673 144.673,12 145.5,12 M154,11 C154,9.346 152.654,8 151,8 C149.914,8 148.936,8.594 148.41,9.518 C146.793,8.637 144.742,8.089 142.5,8.017 L142.5,4.103 L148.013,5.136 C148.085,6.175 148.944,7 150,7 C151.102,7 152,6.103 152,5 C152,3.897 151.102,3 150,3 C149.201,3 148.515,3.474 148.195,4.153 L142.091,3.009 C141.948,2.982 141.796,3.021 141.68,3.115 C141.566,3.211 141.5,3.351 141.5,3.5 L141.5,8.017 C139.257,8.089 137.207,8.637 135.59,9.518 C135.063,8.594 134.086,8 133,8 C131.345,8 130,9.346 130,11 C130,12.297 130.851,13.434 132.051,13.835 C132.017,14.054 132,14.275 132,14.5 C132,18.084 136.486,21 142,21 C147.513,21 152,18.084 152,14.5 C152,14.275 151.982,14.054 151.948,13.835 C153.148,13.434 154,12.297 154,11" id="sc_rd"></path>
            </g>
        </g>
    </g>
</svg>