<?xml version="1.0" encoding="UTF-8"?>
<svg width="24px" height="20px" viewBox="0 0 24 20" version="1.1" xmlns="http://www.w3.org/2000/svg" xmlns:xlink="http://www.w3.org/1999/xlink">
    <!-- Generator: sketchtool 49.3 (51167) - http://www.bohemiancoding.com/sketch -->
    <title>D50BC72E-DBA0-4C92-B193-49B22D999646</title>
    <desc>Created with sketchtool.</desc>
    <defs>
        <linearGradient x1="0%" y1="0%" x2="100%" y2="100%" id="linearGradient-1">
            <stop stop-color="#FAD961" offset="0%"></stop>
            <stop stop-color="#C79651" offset="100%"></stop>
        </linearGradient>
    </defs>
    <g id="Page-1" stroke="none" stroke-width="1" fill="none" fill-rule="evenodd">
        <g id="BMT_landing" transform="translate(-623.000000, -6304.000000)" fill="url(#linearGradient-1)">
            <g id="Group-20" transform="translate(579.000000, 6302.000000)">
                <path d="M67.8659551,4.43 C67.7129551,4.265 67.467955,4.223 67.267955,4.328 C67.1249549,4.403 66.8469548,4.501 66.5209547,4.597 C66.9119548,4.084 67.2289549,3.501 67.364955,2.979 C67.418955,2.776 67.337955,2.561 67.1659549,2.441 C66.9909549,2.322 66.7619548,2.324 66.5919547,2.445 C66.2979546,2.654 64.9389542,3.256 64.0619539,3.451 C62.9489536,2.45 61.8409532,2 60.5009528,2 C59.4959525,2 58.5649522,2.287 57.4829518,2.929 C55.5959512,4.049 55.2689511,6.47 55.4089512,7.955 C50.2869496,7.467 47.4139486,4.487 46.3929483,3.19 C46.2909483,3.061 46.1289482,2.999 45.9649482,3.001 C45.7999481,3.013 45.6509481,3.105 45.5679481,3.248 C44.3469477,5.341 44.8469478,7.495 45.7849481,8.944 C45.6309481,8.839 45.474948,8.722 45.318948,8.593 C45.1689479,8.47 44.9619479,8.442 44.7869478,8.526 C44.6119478,8.608 44.4999477,8.784 44.4999477,8.978 C44.4999477,11.175 45.7869481,12.745 47.0429485,13.637 C46.9199485,13.604 46.7879484,13.566 46.6489484,13.522 C46.4609483,13.465 46.2569483,13.52 46.1269482,13.667 C45.9959482,13.814 45.9629482,14.024 46.0429482,14.203 C46.8459485,16.008 48.442949,17.354 50.2329495,17.822 C48.6939491,18.759 46.5659484,19.24 44.5579477,19.003 C44.3239477,18.972 44.0989476,19.118 44.0249476,19.344 C43.9509475,19.569 44.0459476,19.816 44.2519476,19.934 C46.6859484,21.324 49.2149492,22 51.9829501,22 L52.0009501,22 C55.7819513,21.997 59.3329524,20.352 61.9989533,17.368 C64.5719541,14.489 65.9209545,10.802 65.6449544,7.445 C66.3059547,6.951 67.306955,6.027 67.9239552,5.035 C68.0439552,4.843 68.0199552,4.595 67.8659551,4.43 Z" id="sc_tw"></path>
            </g>
        </g>
    </g>
</svg>